<svg xmlns="http://www.w3.org/2000/svg" width="32" height="32" viewBox="0 0 32 32">
  <!-- Background circle -->
  <circle cx="16" cy="16" r="15" fill="#10b981" stroke="#059669" stroke-width="2"/>
  
  <!-- Sloth body -->
  <ellipse cx="16" cy="18" rx="8" ry="6" fill="#8b5cf6"/>
  
  <!-- Sloth head -->
  <circle cx="16" cy="12" r="5" fill="#8b5cf6"/>
  
  <!-- Eyes -->
  <circle cx="14" cy="11" r="1" fill="#1f2937"/>
  <circle cx="18" cy="11" r="1" fill="#1f2937"/>
  
  <!-- Sleepy eyes effect -->
  <path d="M13 10.5 L15 10.5" stroke="#1f2937" stroke-width="0.5" stroke-linecap="round"/>
  <path d="M17 10.5 L19 10.5" stroke="#1f2937" stroke-width="0.5" stroke-linecap="round"/>
  
  <!-- Nose -->
  <circle cx="16" cy="12.5" r="0.5" fill="#1f2937"/>
  
  <!-- Arms -->
  <ellipse cx="11" cy="16" rx="2" ry="1" fill="#8b5cf6" transform="rotate(-30 11 16)"/>
  <ellipse cx="21" cy="16" rx="2" ry="1" fill="#8b5cf6" transform="rotate(30 21 16)"/>
  
  <!-- Sparkle effect -->
  <path d="M8 8 L9 9 L8 10 L7 9 Z" fill="#fbbf24"/>
  <path d="M24 6 L25 7 L24 8 L23 7 Z" fill="#fbbf24"/>
  <circle cx="26" cy="20" r="1" fill="#fbbf24"/>
</svg>